Patient4_TMGait_0pt5_01_left_30_EMG.mot
version=1
nRows=40
nColumns=33
inDegrees=no
endheader
time	1LAddLong	2LGlutMax	3LGlutMed	4LIliopsoas	5LSemiMemb	6LBicFemLong	7LRecFem	8LVastMed	9LVastLat	10LGasMed	11LTibAnt	12lTibPost	13LPeroneusLong	14LSol	15LExtDigLong	16LFlexDigLong	17RAddLong	18RGlutMax	19RGlutMed	20RIliopsoas	21RSemiMemb	22RBicFemLong	23RRecFem	24RVastMed	25RVastLat	26RGasMed	27RTibAnt	28RTibPost	29RPeroneusLong	30RSol	31RExtDigLong	32RFlexDigLong
40.04	0.012665	0.31097	-0.1329	0.016327	0.053101	-0.024261	-0.072784	0.007324	0.030823	-0.036316	-0.04776	0.017395	0.057373	0.042877	0.003052	0.009308	-0.028229	-0.22919	-0.03952	-0.080872	0.004578	0.26428	0.045319	-0.16068	0.000305	-0.004883	-0.36941	-0.00885	-0.19424	-0.13916	-0.003662	-0.008545
40.041	0.007324	0.28931	-0.12863	0.011139	0.035553	-0.019379	-0.09964	0.003815	0.014648	-0.019531	-0.063171	0.006866	0.063171	-0.023651	0.17425	0.002747	-0.035095	-0.2446	-0.12116	-0.049438	0.012817	0.33218	-0.16968	-0.023956	0.18173	-0.005188	-0.015106	-0.006866	-1.748	-0.085602	-0.007019	-0.007019
40.042	0.007477	0.27679	-0.14221	0.007172	0.016174	-0.027008	-0.050659	0.004578	0.066681	0.010986	0.019836	0.012207	0.018158	-0.1059	-0.063019	0	-0.039825	-0.29343	-0.24216	0.079498	0.010223	0.55771	-0.44128	0.12085	0.23819	0.003815	0.495	-0.003967	-1.0924	-0.086212	-0.005493	-0.005493
40.043	0.019379	0.26718	-0.13168	0.009308	0.011597	-0.037537	-0.026398	-0.005493	0.056915	0.015106	0.094452	0.011292	0.060577	-0.075226	-0.053711	0.003967	-0.002441	-0.27924	-0.67856	0.12558	-0.025024	0.43488	-0.26718	0.056763	0.14938	0.012207	0.82581	-0.004883	-0.24857	-0.14221	-0.005341	-0.00412
40.044	0.013885	0.24323	-0.15579	0.015411	0.006256	-0.04425	-0.027161	0.004425	0.057831	0.015869	0.087738	-0.00824	0.11124	-0.058594	0.13977	0.010986	0.011597	-0.20279	-0.71686	0.19852	-0.023193	-0.17349	-0.092468	0.05722	0.19913	0.014038	0.64133	-0.00824	0.019836	-0.13062	-0.004272	0.003967
40.045	0.020905	0.22964	-0.15701	0.018005	0.01236	-0.022278	-0.017395	0.007782	0.075378	0.002136	0.011902	-0.00946	0.11276	-0.043488	-0.09552	0.014648	0.026245	-0.15411	0.079803	0.15121	-0.028381	-0.43594	0.18295	0.1236	0.3093	0.003967	0.38361	-0.008392	-0.91995	-0.14587	-0.001221	0.004578
40.046	0.007324	0.2507	-0.14313	0.007629	-0.003967	-0.02243	-0.018768	0.007019	0.11063	0	0.004883	-0.014343	0.058899	-0.058899	-0.13947	0.009308	0.031433	-0.070496	0.092316	-0.021515	-0.035248	-0.30289	0.49469	0.14893	0.094299	-0.006866	0.34836	-0.007782	-2.841	-0.061188	-0.007324	0.004425
40.047	0.002747	0.24506	-0.15595	-0.006714	-0.014191	-0.03067	0.007019	0.007019	0.12604	0.005646	-0.008087	-0.001526	0.036621	-0.014038	-0.046234	0.010376	0.018158	-0.067749	0.079803	-0.076294	-0.035553	-0.1709	0.46906	-0.045319	-0.09613	-0.013275	-0.11246	-0.01236	-2.014	-0.00351	-0.00824	0.001068
40.048	0.015564	0.21561	-0.15793	-0.006561	-0.013885	-0.001984	0.00412	0.00885	0.14145	-0.001678	0.035858	-0.003967	0.039978	-0.024567	-0.046082	0.01709	-0.002289	-0.11551	-0.18845	-0.02533	-0.023651	-0.063782	0.008392	-0.018005	-0.10605	-0.011597	-0.20401	-0.00885	1.7542	0.20187	-0.007477	-0.003967
40.049	0.012207	0.22293	-0.14191	0.020294	-0.031586	0.007019	0.01358	0.009766	0.15686	-0.023041	0.086212	-0.000458	0.013275	-0.031738	0.045471	0.01236	0.00351	-0.068359	-0.11154	0.053711	-0.03006	-0.012817	-0.24612	-0.05188	0.014496	-0.004578	-0.31235	-0.007477	2.2937	0.3154	-0.003357	0.003967
40.05	0.000763	0.21393	-0.1355	0.002594	0	-0.006409	0.005035	-0.000153	0.15793	-0.034332	0.13046	-0.011292	-0.008545	-0.024872	0.088043	0.020599	0.005341	-0.036621	0.069427	0.056915	-0.023041	0.10773	-0.13702	0.20798	0.30823	0.010071	-0.27771	-0.007477	0.16296	0.13718	-0.005798	0.003967
40.051	0.018158	0.19684	-0.13733	0.011902	-0.010223	-0.041656	0.001984	0.03418	0.1564	-0.026703	0.19791	-0.005035	0.001373	-0.011902	0.19424	0.013123	-0.005188	0.000763	0.43045	0.037994	-0.031891	0.29892	0.093231	0.005035	0.13397	0.005646	-0.011444	-0.011292	-2.7663	0.24414	-0.005188	-0.000458
40.052	0.010986	0.19608	-0.13153	0	0.022583	-0.048981	0.019531	0.010529	0.15717	0.001526	0.12024	0.000458	0.028229	-0.020905	0.17319	0.012512	-0.002899	0.031433	0.41489	0.091858	-0.03006	0.055695	0.11124	-0.1416	0.02655	-0.005798	-0.08667	-0.013275	-1.3084	0.34042	-0.002594	-0.002747
40.053	0.007019	0.19669	-0.15381	-0.001373	0.080414	-0.018005	0.028229	0.009155	0.15381	0.033875	-0.035248	-0.005951	0.039673	0.011902	0.16769	0.016327	0.000916	0.033722	0.31021	0.052032	-0.036774	-0.079498	0.1294	-0.10147	0.041046	-0.020447	-0.24567	-0.003357	2.4232	0.23102	-0.007324	-0.011444
40.054	0.007935	0.16922	-0.14984	-0.009613	0.04303	0.031128	0.020294	0.012817	0.1471	0.052795	-0.09079	-0.003967	0.062866	0.003662	-0.069275	0.018463	-0.003204	0.11169	0.36941	0.008545	-0.033417	0.058289	0.035248	-0.14526	0.14313	-0.01709	-0.40726	-0.001831	2.2365	-0.073242	-0.00473	-0.000153
40.055	0.010529	0.14984	-0.16113	0.006104	0.002441	0.040436	0.028076	0.009766	0.14969	0.066071	-0.15808	0.002136	0.10452	0.018921	-0.023499	0.013733	0.009155	0.084686	0.35584	-0.010223	-0.041962	0.14252	0.095825	-0.081787	0.15564	-0.016327	-0.36011	-0.006714	0.38681	0.03479	-0.006561	-0.007477
40.056	0.00473	0.13626	-0.14694	0.028839	-0.015411	0.058289	0.007172	0.009308	0.15656	-0.065155	-0.094757	0.000916	0.090942	0.018158	-0.009155	0.029297	0.015564	0.070496	0.32852	-0.039215	-0.049744	0.13153	0.060425	-0.047455	-0.023956	-0.009003	-0.084381	-0.013733	-0.74509	0.00885	-0.007629	-0.009766
40.057	0.012207	0.15121	-0.098724	0.031128	-0.022278	0.037994	0.007019	0.007935	0.17685	-0.12695	-0.052338	-0.009308	0.046844	0.020142	0.12268	0.016785	0.002441	0.092468	0.073853	-0.017853	-0.039978	0.045776	-0.079346	0.19608	-0.079498	-0.001678	0.42328	-0.002594	-1.0213	0.02243	-0.002289	-0.003052
40.058	0.012665	0.13367	-0.089569	0.040894	0.000153	0.020142	0.001984	0.00351	0.18921	-0.13611	-0.005646	0.004272	0.092621	0.09491	0.16174	0.036774	-0.01358	0.10849	0.091248	0.035248	-0.027313	-0.043335	-0.21133	0.11734	-0.02243	0.002747	0.76645	-0.001526	-0.24536	-0.034637	-0.002289	-0.00946
40.059	0.016632	0.11169	-0.18448	0.016479	0.018921	-0.014954	0.00351	0.007019	0.19257	-0.10071	0.079803	-0.005646	0.1358	0.10559	0.06958	0.017395	-0.000916	0.14053	0.073242	0.079346	-0.019531	-0.10941	-0.39398	0.032654	0.063629	-0.000458	0.86884	0.001068	0.20599	-0.010986	-0.008392	-0.012054
40.06	0.002747	0.059357	-0.21561	-0.010834	0.014038	-0.001526	-0.011902	0.006409	0.19608	-0.054932	0.10513	0.001984	0.04303	0.092773	-0.015106	0.006409	0.008087	0.11337	-0.032654	0.067596	-0.015259	-0.19562	-0.15076	0.008545	-0.004883	-0.001068	0.066223	-0.005646	0.45334	-0.069885	-0.007324	-0.01236
40.061	0.005493	0.070801	-0.088501	-0.013275	-0.005493	-0.001373	-0.000305	0.007172	0.19073	-0.001831	0.068817	0.012512	0.034332	0.088654	0.065613	0.013428	0.016174	0.10666	-0.15823	0.073242	-0.015259	-0.35629	-0.11292	-0.031433	-0.034332	-0.007629	-0.26825	-0.010681	0.31601	-0.11169	0.002899	-0.010834
40.062	0.004272	0.066833	-0.025482	-0.009766	-0.001678	-0.001526	-0.016327	0.007324	0.18021	-0.017548	-0.07431	0.017395	0.12222	0.097198	-0.071716	0.004425	0.003357	0.12665	-0.19791	0.049286	-0.00946	-0.19577	-0.092926	0.012054	-0.001068	0	-0.17334	-0.007477	0.30182	-0.21011	-0.005646	-0.002747
40.063	0	0.043488	-0.04364	-0.004883	0.001221	-0.003204	-0.029602	0.005493	0.19516	-0.027771	-0.089874	0.000458	0.16205	0.13855	-0.12131	0.008698	-0.000763	0.046082	-0.15152	0.029755	0.013428	-0.023956	0.25024	0.080566	0.015259	-0.00473	0.15335	-0.004578	0.12375	-0.23071	-0.008392	-0.007019
40.064	0.000153	0.015869	-0.050964	-0.001068	0.007629	-0.03006	-0.013275	0.00824	0.18982	-0.025787	-0.046539	-0.003967	0.14984	0.10315	-0.042114	0.019073	-0.001678	0.01236	0.41779	-0.07431	0.007477	0.065155	0.50568	-0.032959	-0.11475	0.006561	0.058594	-0.005341	0.27832	-0.17395	-0.003662	-0.000153
40.065	0.003204	0.027771	-0.046387	0.006256	-0.003662	-0.009003	-0.030365	0.010681	0.19653	0.019684	0.073395	0.002289	0.084381	0.032654	0.046387	0.027618	-0.00885	0.0383	0.88043	-0.073853	0.012512	0.031128	0.51941	-0.091248	-0.13733	0.021362	-0.21103	-0.001373	0.013733	-0.16342	-0.004578	0.006866
40.066	0.000916	0.048828	-0.043793	0.013275	-0.044098	-0.000458	-0.033722	0.002594	0.20432	0.015564	0.13031	-0.011902	0.085754	0.029907	-0.011139	0.018616	-0.025635	0.20371	0.6221	0.037537	0.015411	-0.074005	0.17868	0.13107	-0.079803	0.009766	-0.020447	-0.010681	-0.6517	-0.063019	-0.007324	0.005035
40.067	0.008087	0.03067	-0.05661	0.005493	-0.078888	-0.018921	-0.029602	0.004578	0.20371	-0.017242	0.10712	-0.00473	0.088043	0.013733	-0.10361	0.007477	-0.02243	0.15427	0.096893	0.074768	0.026245	-0.18829	-0.09552	0.28702	0.032654	-0.014191	0.31082	-0.006409	-0.83023	0.054474	-0.003967	-0.001221
40.068	0.005951	0.00061	-0.091858	-0.00351	-0.018768	-0.015564	-0.054169	0.00885	0.20645	-0.015717	0.07431	0.018158	0.067291	-0.057831	-0.097198	0.011749	-0.023804	0.13458	0.16235	0.003357	0.025482	-0.21515	-0.18814	0.38528	0.17044	-0.019836	0.28412	-0.007324	-1.5366	-0.018921	-0.010529	-0.002136
40.069	0.000305	-0.021362	-0.10605	0.000458	0.035553	0.012665	-0.019836	0.003052	0.20828	-0.05127	-0.11017	0.006409	0.072937	-0.12619	-0.13138	0.005341	-0.023346	0.099945	-0.009613	-0.073853	0.022278	-0.14938	-0.28122	0.20126	0.083008	-0.01297	0.010529	-0.007324	0.3775	-0.041351	0.008087	-0.002289
40.07	0.00412	-0.00473	-0.11887	-0.007782	0.013885	0.002899	-0.045013	0.005035	0.19898	-0.068817	-0.042877	0.007324	0.085907	-0.10193	-0.06134	0.008392	-0.013275	0.041656	-0.54275	-0.03418	-0.008087	-0.12238	-0.18051	0.086975	0.046539	-0.018005	-0.12604	-0.000916	2.377	-0.088348	-0.006561	-0.006256
40.071	0.001068	0.033875	-0.1004	0.007629	-0.014343	-0.017548	-0.056305	0.006714	0.20279	-0.058289	-0.086517	0.000153	0.15457	-0.070343	0.12222	0.009918	0.016785	-0.015106	-0.215	0.029144	-0.02121	-0.1181	-0.081482	0.11292	0.091553	-0.014038	-0.16007	-0.006561	1.7036	0.016937	-0.007629	-0.000916
40.072	0.007629	0.050049	-0.10101	0.004272	-0.032959	-0.037079	-0.051727	0.035553	0.20706	-0.042267	-0.13947	0.002136	0.14633	-0.057678	0.20752	0.018005	0.009613	0.08728	0.34225	-0.031128	-0.016174	0.040131	0.075073	-0.031738	0.042725	-0.006256	0.026245	-0.004425	0.89584	-0.018005	-0.008698	-0.000916
40.073	0.002747	0.045471	-0.11185	0.00473	0.04425	-0.053558	-0.042877	0.012054	0.20279	-0.002289	-0.19943	0.005341	0.099182	-0.034943	0.18814	0.015869	0.011139	0.15762	0.15503	0.042267	0.008087	0.35812	-0.27863	-0.11307	0.038147	-0.012665	0.001831	-0.014801	0.080109	0.17563	-0.007477	-0.001984
40.074	0.005035	0.053101	-0.1001	0.021362	0.037537	-0.055847	-0.045166	0.008698	0.19638	-0.022583	-0.103	0.002441	0.12024	-0.034027	0.029602	0.018005	0.015717	0.010529	0.083618	-0.032654	0.006866	0.53192	-0.24796	-0.22964	-0.005951	-0.012207	-0.041504	-0.019073	-1.844	0.35172	-0.005646	-0.015106
40.075	0.008087	0.051422	-0.10513	0.005951	0.036774	-0.013733	-0.054321	-0.005493	0.18555	-0.021667	0.090637	0.008698	0.084686	-0.03891	0.019531	0.015259	0.014038	-0.013733	0.40237	-0.052032	-0.013275	0.26977	-0.23224	-0.31616	-0.067749	-0.002441	-0.019379	-0.014648	-1.0451	0.34302	-0.003204	-0.013733
40.076	0.013428	0.061493	-0.12695	0.007324	0.00824	0.033264	-0.046844	0.00885	0.19134	-0.01709	0.30914	0.000305	0.054932	-0.042725	-0.033112	0.001678	-0.001678	0.042877	0.44205	-0.058289	0.010071	-0.02121	-0.17731	-0.39825	-0.089264	0.028229	-0.053406	-0.006866	-0.12482	0.25391	-0.005493	-0.010986
40.077	0.017395	0.066528	-0.12787	0.012054	-0.00946	0.009613	-0.038605	0.006714	0.19547	-0.025635	0.23132	0.001831	0.090485	-0.021057	-0.12528	0.015869	0.012512	0.035248	0.44907	-0.077972	-0.008545	-0.18601	-0.099335	-0.46783	-0.099182	0.014191	-0.026245	0.000763	0.21164	0.30609	-0.007019	-0.01236
40.078	0.016022	0.075378	-0.11398	0.014496	-0.003357	-0.044098	-0.043793	0.004272	0.1799	-0.048523	0.026855	-0.014954	0.12024	0.016327	-0.019989	0.013428	0.005951	-0.00885	0.32135	-0.046387	-0.004883	-0.10468	-0.18906	-0.41031	0.001221	0.010071	0.033875	0.013733	-0.50507	0.17151	-0.00351	-0.013733
40.079	0.018311	0.080566	-0.10193	0.015259	0.00412	-0.062256	-0.031586	0.00473	0.17578	-0.073853	-0.083618	0.001373	0.19669	0.03006	-0.034943	0.014343	0.006104	-0.036774	0.45319	-0.11047	-0.003662	0.086823	-0.042114	-0.11154	0.040131	-0.001068	0.062408	0.010681	-1.6704	0.089722	-0.00473	0.005188
